<svg width="114" height="22" viewBox="0 0 114 22" fill="none" xmlns="http://www.w3.org/2000/svg">
<path d="M112.258 21.0797L43.0214 21.0797V1.04362L112.258 1.04362C112.901 1.04362 113.421 1.55003 113.421 2.17533V19.9479C113.421 20.5732 112.901 21.0797 112.258 21.0797Z" fill="#32B04A"/>
<path d="M2.23476 1.04364H43.614V21.0797H2.23476C1.59238 21.0797 1.07214 20.5733 1.07214 19.948V2.17535C1.07214 1.55005 1.59238 1.04364 2.23476 1.04364Z" fill="#F3E008"/>
<path d="M110.684 1.04363C111.924 1.04363 112.928 2.02122 112.928 3.22778V18.7722C112.928 19.9788 111.924 20.9564 110.087 20.9564H2.71881C2.07643 20.9564 1.07214 19.9788 1.07214 18.7722V3.22778C1.07214 2.02122 2.07643 1.04363 3.31595 1.04363H110.684ZM110.684 0H3.31595C1.48833 0 0 1.44876 0 3.22778V18.7722C0 20.5512 1.48833 22 3.31595 22H110.684C112.512 22 114 20.5512 114 18.7722V3.22778C114 1.44876 112.512 0 110.684 0Z" fill="black"/>
<path d="M51.689 15.2098C48.5269 15.2098 47.1562 13.4924 47.1562 10.9736C47.1562 8.45475 48.6445 6.79022 51.5443 6.79022C54.0912 6.79022 55.6836 7.82065 55.8012 9.80223C55.2538 9.84186 53.3448 10.0444 53.0462 10.1589C52.9693 9.52481 52.431 9.04042 51.5579 9.04042C50.5129 9.04042 49.8343 9.59967 49.8343 10.9471C49.8343 12.2946 50.5807 12.9287 51.6755 12.9287C52.354 12.9287 52.8517 12.6601 53.0733 12.2682C52.5486 12.255 51.8338 12.255 51.2186 12.2946C51.2321 11.8631 51.2186 10.8194 51.2186 10.476C52.0012 10.5024 55.385 10.476 55.8826 10.476C55.8962 10.6169 55.9098 11.1629 55.9098 11.3038C55.9098 13.8226 54.0821 15.2054 51.689 15.2054V15.2098Z" fill="white"/>
<path d="M62.0757 14.994C61.9988 14.8531 61.2659 13.7874 60.5467 12.757C60.1667 12.757 59.8545 12.7438 59.5786 12.7438C59.5921 13.6597 59.5921 14.448 59.6057 14.994C58.7281 14.9456 57.5293 14.9456 56.6381 14.994C56.7286 13.237 56.715 9.96076 56.6381 7.02361H58.805C60.0083 7.02361 61.1845 6.99719 61.6279 6.99719C63.3921 6.99719 64.6452 8.04083 64.6452 9.7582C64.6452 10.7006 64.2155 11.6781 63.261 12.2506C63.9033 13.1401 64.7221 14.2586 65.2062 14.8839L65.2198 14.9984C64.7221 14.972 62.5824 14.972 62.0712 14.9984L62.0757 14.994ZM59.5921 9.19455C59.5786 9.76701 59.5786 10.3659 59.5786 10.9383C59.9179 10.9516 60.2436 10.9383 60.5829 10.9383C61.4967 10.9383 61.8088 10.5817 61.8088 10.0092C61.8088 9.36188 61.3926 9.18134 60.7231 9.18134C60.4336 9.18134 59.954 9.18134 59.5876 9.19455H59.5921Z" fill="white"/>
<path d="M69.9245 6.79022C72.8876 6.79022 74.3669 8.53402 74.3669 11C74.3669 13.466 72.7881 15.2098 69.9245 15.2098C67.061 15.2098 65.4821 13.4439 65.4821 10.9868C65.4821 8.52961 66.9569 6.79022 69.9245 6.79022ZM69.9245 9.24298C68.9836 9.24298 68.305 9.87709 68.305 11.0088C68.305 12.1405 68.9836 12.7614 69.9245 12.7614C70.8655 12.7614 71.5441 12.1405 71.5441 11.0088C71.5441 9.87709 70.8655 9.24298 69.9245 9.24298Z" fill="white"/>
<path d="M77.7507 10.9736C77.7507 12.2066 78.4293 12.7658 79.4245 12.7658C80.3112 12.7658 80.7681 12.2462 80.836 11.6341C81.1481 11.6737 83.2155 11.8631 83.6724 11.8895C83.3964 14.012 81.8448 15.2098 79.4381 15.2098C76.276 15.2098 74.9052 13.4924 74.9052 10.9736C74.9052 8.45475 76.3936 6.79022 79.2933 6.79022C81.8538 6.79022 83.4462 8.02321 83.591 10.2998C83.1612 10.3263 81.1345 10.4143 80.8631 10.454C80.7862 9.71856 80.2614 9.24739 79.3883 9.24739C78.3976 9.24739 77.7552 9.75379 77.7552 10.978L77.7507 10.9736Z" fill="white"/>
<path d="M91.1367 14.994C89.2955 14.9456 85.2964 14.9676 84.1881 14.994C84.2786 12.6029 84.2786 9.59087 84.1609 7.01041C85.2602 7.03683 89.6845 7.05004 91.0824 7.01041C91.0824 7.56965 91.0688 8.91713 91.0824 9.38831C90.1414 9.28703 88.2731 9.23419 87.1512 9.22098V10.0356C88.2505 10.0488 90.2998 10.0488 90.5621 10.0224C90.535 10.6345 90.535 11.4359 90.5621 12.004C90.2862 11.9908 88.1962 11.9908 87.1376 11.9908V12.779C88.2595 12.7658 90.1686 12.7174 91.1367 12.6117C91.1231 13.0829 91.1367 14.4303 91.1367 14.9896V14.994Z" fill="white"/>
<path d="M97.4338 14.994C97.3569 14.8531 96.624 13.7874 95.9048 12.757C95.5248 12.757 95.2126 12.7438 94.9367 12.7438C94.9502 13.6597 94.9502 14.448 94.9638 14.994C94.0907 14.9456 92.8874 14.9456 92.0007 14.994C92.0912 13.237 92.0776 9.96076 92.0007 7.02361H94.1676C95.3709 7.02361 96.5471 6.99719 96.9905 6.99719C98.7547 6.99719 100.008 8.04083 100.008 9.7582C100.008 10.7006 99.5781 11.6781 98.6236 12.2506C99.2614 13.1401 100.085 14.2586 100.569 14.8839L100.582 14.9984C100.085 14.972 97.945 14.972 97.4338 14.9984V14.994ZM94.9502 9.19455C94.9367 9.76701 94.9367 10.3659 94.9367 10.9383C95.2759 10.9516 95.6017 10.9383 95.9409 10.9383C96.8548 10.9383 97.1669 10.5817 97.1669 10.0092C97.1669 9.36188 96.7507 9.18134 96.0812 9.18134C95.7917 9.18134 95.3121 9.18134 94.9457 9.19455H94.9502Z" fill="white"/>
<path d="M104.527 10.3615H104.604C105.047 9.37067 105.595 8.09806 106.092 7.00598H109.345C108.599 8.07163 107.282 10.6565 106.065 12.9067C106.065 13.6333 106.079 14.3555 106.079 14.9896C105.346 14.9764 103.912 14.9764 103.179 14.9896C103.206 14.3423 103.233 13.6157 103.256 12.8803C101.989 10.8194 100.578 8.34025 99.7048 7.00598H103.102C103.365 7.781 103.989 9.24297 104.527 10.3615Z" fill="white"/>
<path d="M36.6791 6.73741C35.7381 6.73741 34.8876 7.03244 34.2317 7.58288L34.0417 6.93556H32.386V15.0997H34.4941V10.6609C34.4941 9.71419 35.1455 8.75862 36.385 8.75862C37.3576 8.75862 37.9367 9.42355 37.9367 10.5376V15.0953H40.0448V10.3879C40.0448 8.16855 38.7238 6.733 36.6791 6.733" fill="black"/>
<path d="M17.6474 6.7374C15.2815 6.7374 13.4312 8.6133 13.4312 11.0088C13.4312 13.4043 15.2815 15.2802 17.6474 15.2802C20.0134 15.2802 21.8636 13.4043 21.8636 11.0088C21.8636 8.6133 20.0134 6.7374 17.6474 6.7374ZM17.6474 13.259C16.4441 13.259 15.571 12.3123 15.571 11.0088C15.571 9.70537 16.4441 8.76302 17.6474 8.76302C18.8507 8.76302 19.7238 9.70977 19.7238 11.0088C19.7238 12.3079 18.8507 13.259 17.6474 13.259Z" fill="black"/>
<path d="M8.90287 6.73741C7.96192 6.73741 7.11144 7.03244 6.45549 7.58288L6.26549 6.93556H4.60977V15.0997H6.71787V10.6609C6.71787 9.71419 7.3693 8.75862 8.60882 8.75862C9.58144 8.75862 10.1605 9.42355 10.1605 10.5376V15.0953H12.2686V10.3879C12.2686 8.16855 10.9476 6.733 8.90287 6.733" fill="black"/>
<path d="M26.9167 6.71979C24.5507 6.71979 22.7005 8.59569 22.7005 10.9912C22.7005 13.3867 24.5507 15.2626 26.9167 15.2626C29.2826 15.2626 31.1374 13.3867 31.1374 10.9912C31.1374 8.59569 29.2872 6.71979 26.9167 6.71979ZM26.9167 13.2414C25.7134 13.2414 24.8403 12.2946 24.8403 10.9912C24.8403 9.68776 25.7134 8.74541 26.9167 8.74541C28.12 8.74541 28.9931 9.69217 28.9931 10.9912C28.9931 12.2902 28.12 13.2414 26.9167 13.2414Z" fill="black"/>
</svg>
